PathFileType  4	(X/Y/Z) C:\Users\wagnerel85475\Documents\Thesis\opencap-core\Data\3375ffbc-daeb-4a43-b4f7-ac9899cd4c71\MarkerData\PreAugmentation
DataRate	CameraRate	NumFrames	NumMarkers	Units	OrigDataRate	OrigDataStartFrame	OrigNumFrames
60.0	60.0	15	20	m	60.0	721	823
Frame#	Time	Neck			RShoulder			RElbow			RWrist			LShoulder			LElbow			LWrist			midHip			RHip			RKnee			RAnkle			LHip			LKnee			LAnkle			LBigToe			LSmallToe			LHeel			RBigToe			RSmallToe			RHeel			
		X1	Y1	Z1	X2	Y2	Z2	X3	Y3	Z3	X4	Y4	Z4	X5	Y5	Z5	X6	Y6	Z6	X7	Y7	Z7	X8	Y8	Z8	X9	Y9	Z9	X10	Y10	Z10	X11	Y11	Z11	X12	Y12	Z12	X13	Y13	Z13	X14	Y14	Z14	X15	Y15	Z15	X16	Y16	Z16	X17	Y17	Z17	X18	Y18	Z18	X19	Y19	Z19	X20	Y20	Z20	

721	12.0000000	2.1105400	1.3490700	-0.1140700	2.1336200	1.3514300	0.0715000	2.0651700	1.0662300	0.1464200	2.2083500	0.8082100	0.1899800	2.1061400	1.3508800	-0.3060600	2.0437000	1.0506900	-0.3630900	2.1049800	0.7470800	-0.4008500	2.1451400	0.8078100	-0.0978900	2.1385900	0.8121200	0.0224200	2.1841700	0.3527500	-0.0013100	1.9721900	-0.1464500	0.0403700	2.1427600	0.8067700	-0.2239700	2.1412800	0.3236300	-0.1936900	2.1236500	-0.1776700	-0.2177700	2.3209700	-0.2260800	-0.2542800	2.3007100	-0.2298900	-0.2773200	2.0743900	-0.2194700	-0.2047900	2.1847800	-0.2131700	0.0539900	2.1588800	-0.2188400	0.0872900	1.9154200	-0.1867800	0.0332300
722	12.0166667	2.1137600	1.3481300	-0.1166000	2.1348500	1.3506800	0.0701500	2.0668700	1.0644400	0.1434000	2.2027900	0.8007200	0.1856200	2.1142200	1.3494600	-0.3115800	2.0509900	1.0504000	-0.3701200	2.1218000	0.7496200	-0.4098100	2.1492400	0.8091200	-0.0992600	2.1412600	0.8118000	0.0202300	2.1970900	0.3492100	0.0011100	1.9736700	-0.1437000	0.0410700	2.1475000	0.8085600	-0.2269600	2.1424700	0.3225500	-0.1954100	2.1241800	-0.1769300	-0.2177400	2.3210200	-0.2254800	-0.2541700	2.2997000	-0.2305200	-0.2790000	2.0752800	-0.2193500	-0.2042500	2.1878200	-0.2125000	0.0538900	2.1610300	-0.2188200	0.0848100	1.9176100	-0.1835200	0.0349300
723	12.0333333	2.1186800	1.3466500	-0.1204800	2.1355300	1.3490500	0.0672100	2.0711200	1.0618700	0.1392100	2.1984600	0.7947300	0.1832100	2.1219400	1.3486700	-0.3169700	2.0598000	1.0509400	-0.3774300	2.1386700	0.7532000	-0.4190700	2.1515000	0.8099300	-0.0993300	2.1436200	0.8121400	0.0182400	2.2066900	0.3481100	0.0007900	1.9752600	-0.1431500	0.0429300	2.1489400	0.8078100	-0.2277800	2.1435700	0.3224700	-0.1963100	2.1239400	-0.1763000	-0.2177000	2.3207800	-0.2252100	-0.2542300	2.2993600	-0.2308800	-0.2804700	2.0756200	-0.2184900	-0.2042400	2.1911400	-0.2132000	0.0549800	2.1652500	-0.2193400	0.0831500	1.9209900	-0.1813700	0.0367500
724	12.0500000	2.1250900	1.3460900	-0.1255500	2.1363100	1.3474900	0.0619100	2.0763400	1.0609500	0.1339600	2.1939700	0.7910800	0.1809600	2.1271600	1.3485300	-0.3206800	2.0679900	1.0523400	-0.3831600	2.1561400	0.7574700	-0.4282900	2.1521600	0.8095400	-0.0993200	2.1456000	0.8127300	0.0164200	2.2136400	0.3504100	-0.0014600	1.9805300	-0.1424600	0.0457200	2.1498700	0.8062100	-0.2271300	2.1439700	0.3226000	-0.1966500	2.1227600	-0.1759500	-0.2172900	2.3201700	-0.2252800	-0.2545700	2.2985400	-0.2309200	-0.2808500	2.0762900	-0.2166700	-0.2037900	2.1955600	-0.2140500	0.0562100	2.1727100	-0.2186500	0.0831800	1.9279500	-0.1782700	0.0385900
725	12.0666667	2.1311300	1.3468900	-0.1304000	2.1392200	1.3466500	0.0551700	2.0807000	1.0619500	0.1287000	2.1878200	0.7888000	0.1778100	2.1301700	1.3486600	-0.3223600	2.0760600	1.0542300	-0.3883600	2.1739600	0.7634000	-0.4365900	2.1531300	0.8093200	-0.1002600	2.1486800	0.8135100	0.0140300	2.2189400	0.3549000	-0.0034900	1.9909700	-0.1396900	0.0480900	2.1523000	0.8060400	-0.2262800	2.1440300	0.3224800	-0.1968000	2.1206900	-0.1760500	-0.2171200	2.3197600	-0.2250500	-0.2547000	2.2974300	-0.2306800	-0.2800700	2.0768500	-0.2151200	-0.2032000	2.2015500	-0.2132300	0.0578800	2.1829100	-0.2164300	0.0856100	1.9384500	-0.1754100	0.0399600
726	12.0833333	2.1350600	1.3487900	-0.1336100	2.1449400	1.3471600	0.0494800	2.0836200	1.0636500	0.1252500	2.1799800	0.7866200	0.1737100	2.1329200	1.3494900	-0.3228000	2.0853600	1.0573300	-0.3944400	2.1910300	0.7696000	-0.4439000	2.1559800	0.8102900	-0.1028100	2.1540400	0.8149600	0.0107400	2.2234500	0.3574400	-0.0047400	2.0041600	-0.1364400	0.0486300	2.1562200	0.8074000	-0.2259800	2.1440700	0.3222100	-0.1969800	2.1187600	-0.1766900	-0.2174400	2.3198500	-0.2244900	-0.2544800	2.2973000	-0.2301600	-0.2790700	2.0761900	-0.2151900	-0.2034100	2.2104100	-0.2098200	0.0610100	2.1938300	-0.2126300	0.0902200	1.9492500	-0.1765500	0.0408300
727	12.1000000	2.1373100	1.3512100	-0.1350000	2.1510000	1.3486100	0.0469200	2.0854600	1.0648400	0.1244000	2.1721900	0.7843200	0.1694100	2.1371100	1.3512800	-0.3236300	2.0945400	1.0609500	-0.4000500	2.2065700	0.7744800	-0.4502500	2.1600300	0.8123700	-0.1062100	2.1606900	0.8174400	0.0076500	2.2263400	0.3583900	-0.0056700	2.0161900	-0.1366000	0.0478900	2.1600800	0.8098300	-0.2256900	2.1441700	0.3222600	-0.1971200	2.1179600	-0.1766300	-0.2177400	2.3199100	-0.2243000	-0.2544400	2.2981800	-0.2299800	-0.2788500	2.0745200	-0.2168800	-0.2043100	2.2226600	-0.2040500	0.0659700	2.2050500	-0.2079400	0.0962600	1.9586100	-0.1833100	0.0423500
728	12.1166667	2.1396900	1.3533300	-0.1353300	2.1553600	1.3510900	0.0471100	2.0863300	1.0654200	0.1249800	2.1660100	0.7823600	0.1657500	2.1433000	1.3538900	-0.3260800	2.1021400	1.0638400	-0.4035300	2.2208800	0.7786600	-0.4556400	2.1636200	0.8136900	-0.1085600	2.1669900	0.8210900	0.0065200	2.2268500	0.3577600	-0.0064000	2.0264600	-0.1410300	0.0475400	2.1628900	0.8107100	-0.2247000	2.1441200	0.3228000	-0.1970300	2.1185600	-0.1756700	-0.2179000	2.3197900	-0.2243200	-0.2546000	2.2986300	-0.2302600	-0.2795300	2.0729800	-0.2188400	-0.2050900	2.2370000	-0.1985100	0.0723400	2.2173900	-0.2025300	0.1032600	1.9680800	-0.1915300	0.0452500
729	12.1333333	2.1430600	1.3549000	-0.1357000	2.1584200	1.3539400	0.0478200	2.0864500	1.0659500	0.1255200	2.1613900	0.7803000	0.1632000	2.1508900	1.3566500	-0.3294800	2.1091900	1.0666400	-0.4059400	2.2344800	0.7834000	-0.4609900	2.1667700	0.8139500	-0.1092400	2.1732700	0.8227600	0.0076000	2.2246200	0.3550000	-0.0063900	2.0378900	-0.1456100	0.0485700	2.1652300	0.8099500	-0.2237500	2.1439800	0.3228300	-0.1967900	2.1194400	-0.1751800	-0.2182400	2.3202000	-0.2243800	-0.2543000	2.2986600	-0.2307500	-0.2803900	2.0722700	-0.2201500	-0.2054400	2.2511500	-0.1964800	0.0794900	2.2316400	-0.1993100	0.1103200	1.9794000	-0.1953000	0.0486600
730	12.1500000	2.1469000	1.3560700	-0.1371400	2.1605700	1.3556800	0.0476100	2.0866500	1.0663500	0.1253700	2.1570900	0.7788200	0.1622500	2.1578000	1.3584400	-0.3322900	2.1169200	1.0704500	-0.4094500	2.2466200	0.7907400	-0.4671500	2.1708500	0.8142300	-0.1099500	2.1789700	0.8252400	0.0097900	2.2213900	0.3500200	-0.0057000	2.0521900	-0.1464300	0.0512200	2.1691600	0.8087400	-0.2245400	2.1441900	0.3222800	-0.1969600	2.1197900	-0.1759400	-0.2186800	2.3211200	-0.2246200	-0.2534800	2.2989300	-0.2307300	-0.2810000	2.0716400	-0.2206300	-0.2059000	2.2628700	-0.1978900	0.0861900	2.2435100	-0.1981300	0.1157500	1.9935100	-0.1962100	0.0511600
731	12.1666667	2.1503900	1.3564600	-0.1395500	2.1610900	1.3550300	0.0466800	2.0876100	1.0675500	0.1244800	2.1523200	0.7779400	0.1630900	2.1621700	1.3588800	-0.3340200	2.1246900	1.0737200	-0.4141200	2.2574300	0.7968300	-0.4738900	2.1753500	0.8146700	-0.1118100	2.1835000	0.8262400	0.0114500	2.2189200	0.3477300	-0.0048900	2.0666400	-0.1456700	0.0550900	2.1752200	0.8090500	-0.2270000	2.1452900	0.3225300	-0.1980100	2.1197800	-0.1763300	-0.2189100	2.3224400	-0.2253900	-0.2524500	2.2996600	-0.2307800	-0.2812900	2.0702600	-0.2207200	-0.2070300	2.2719100	-0.2006400	0.0904700	2.2522000	-0.1992700	0.1180600	2.0082500	-0.1982600	0.0523300
732	12.1833333	2.1530600	1.3555000	-0.1419100	2.1601800	1.3520600	0.0457100	2.0891000	1.0693900	0.1232500	2.1473500	0.7764000	0.1651200	2.1643600	1.3584800	-0.3348500	2.1307800	1.0743900	-0.4182000	2.2673900	0.8005900	-0.4803200	2.1784800	0.8143000	-0.1138900	2.1870100	0.8257900	0.0122300	2.2171700	0.3486700	-0.0035900	2.0766200	-0.1476700	0.0589000	2.1816800	0.8102300	-0.2296500	2.1469500	0.3240800	-0.1995700	2.1197800	-0.1755500	-0.2189600	2.3237700	-0.2258700	-0.2516200	2.2999800	-0.2307300	-0.2813600	2.0684300	-0.2206300	-0.2084900	2.2786200	-0.2016200	0.0914800	2.2592700	-0.1992900	0.1173100	2.0218600	-0.2026400	0.0528200
733	12.2000000	2.1551700	1.3535500	-0.1436800	2.1600600	1.3486300	0.0452600	2.0902000	1.0712100	0.1224200	2.1421500	0.7738500	0.1673300	2.1659200	1.3579800	-0.3346000	2.1343600	1.0723400	-0.4207200	2.2767200	0.8026300	-0.4853900	2.1799300	0.8130500	-0.1151500	2.1903400	0.8237300	0.0125600	2.2142200	0.3486400	-0.0004400	2.0811700	-0.1536100	0.0617500	2.1865300	0.8107600	-0.2317500	2.1479600	0.3257600	-0.2006000	2.1199100	-0.1750000	-0.2189900	2.3245700	-0.2257400	-0.2512800	2.2999200	-0.2306400	-0.2813200	2.0672600	-0.2206700	-0.2093500	2.2848500	-0.2003500	0.0905300	2.2668000	-0.1973500	0.1155300	2.0342200	-0.2058200	0.0533900
734	12.2166667	2.1575200	1.3516100	-0.1449200	2.1626900	1.3463300	0.0454800	2.0904300	1.0720700	0.1222100	2.1358100	0.7696000	0.1688100	2.1677000	1.3576300	-0.3333100	2.1360500	1.0703300	-0.4220100	2.2854600	0.8045300	-0.4888700	2.1807500	0.8116200	-0.1153800	2.1929300	0.8218600	0.0129500	2.2097500	0.3450200	0.0042900	2.0843200	-0.1628600	0.0635600	2.1894300	0.8103200	-0.2329900	2.1477800	0.3257200	-0.2004300	2.1196700	-0.1751800	-0.2187700	2.3247300	-0.2255000	-0.2512900	2.2997800	-0.2305300	-0.2812600	2.0671000	-0.2211500	-0.2093700	2.2929100	-0.1986500	0.0893600	2.2755400	-0.1959700	0.1147500	2.0452700	-0.2056200	0.0541900
735	12.2333333	2.1603200	1.3505000	-0.1454700	2.1671700	1.3455700	0.0460900	2.0901600	1.0708800	0.1222100	2.1278700	0.7656400	0.1696700	2.1697200	1.3568400	-0.3316000	2.1373700	1.0696000	-0.4225500	2.2943300	0.8076900	-0.4919200	2.1818600	0.8104400	-0.1146700	2.1941700	0.8195200	0.0133000	2.2049300	0.3399200	0.0083100	2.0881700	-0.1708600	0.0643700	2.1913300	0.8097200	-0.2328900	2.1469400	0.3244000	-0.1995400	2.1186300	-0.1754800	-0.2180800	2.3246500	-0.2255700	-0.2513100	2.2998400	-0.2308500	-0.2812700	2.0669900	-0.2218300	-0.2094100	2.3037000	-0.1992600	0.0887000	2.2858700	-0.1981700	0.1146900	2.0545600	-0.2065100	0.0551500
